{"asset":{"version":"2.0","generator":"Blockbench 4.6.4 glTF exporter"},"scenes":[{"nodes":[18],"name":"blockbench_export"}],"scene":0,"nodes":[{"translation":[0,-1.125,0],"name":"cube","mesh":0},{"translation":[0,-1.125,0],"name":"cube","mesh":1},{"translation":[0,-1.75,0],"name":"cube","mesh":2},{"translation":[0,-1.75,0],"name":"cube","mesh":3},{"translation":[0,0.625,0],"name":"head","children":[2,3]},{"translation":[-0.375,-1.125,0],"name":"cube","mesh":4},{"translation":[-0.375,-1.125,0],"name":"cube","mesh":5},{"translation":[0.375,0,0],"name":"rightarm","children":[5,6]},{"translation":[0.375,-1.125,0],"name":"cube","mesh":6},{"translation":[0.375,-1.125,0],"name":"cube","mesh":7},{"translation":[-0.375,0,0],"name":"leftarm","children":[8,9]},{"translation":[0,1.125,0],"name":"torso","children":[0,1,4,7,10]},{"translation":[0.125,-0.375,0],"name":"cube","mesh":8},{"translation":[0.125,-0.375,0],"name":"cube","mesh":9},{"translation":[-0.125,0.375,0],"name":"leftleg","children":[12,13]},{"translation":[-0.125,-0.375,0],"name":"cube","mesh":10},{"translation":[-0.125,-0.375,0],"name":"cube","mesh":11},{"translation":[0.125,0.375,0],"name":"rightleg","children":[15,16]},{"children":[11,14,17]}],"bufferViews":[{"buffer":0,"byteOffset":0,"byteLength":288,"target":34962,"byteStride":12},{"buffer":0,"byteOffset":288,"byteLength":288,"target":34962,"byteStride":12},{"buffer":0,"byteOffset":576,"byteLength":192,"target":34962,"byteStride":8},{"buffer":0,"byteOffset":768,"byteLength":72,"target":34963},{"buffer":0,"byteOffset":840,"byteLength":288,"target":34962,"byteStride":12},{"buffer":0,"byteOffset":1128,"byteLength":288,"target":34962,"byteStride":12},{"buffer":0,"byteOffset":1416,"byteLength":192,"target":34962,"byteStride":8},{"buffer":0,"byteOffset":1608,"byteLength":72,"target":34963},{"buffer":0,"byteOffset":1680,"byteLength":288,"target":34962,"byteStride":12},{"buffer":0,"byteOffset":1968,"byteLength":288,"target":34962,"byteStride":12},{"buffer":0,"byteOffset":2256,"byteLength":192,"target":34962,"byteStride":8},{"buffer":0,"byteOffset":2448,"byteLength":72,"target":34963},{"buffer":0,"byteOffset":2520,"byteLength":288,"target":34962,"byteStride":12},{"buffer":0,"byteOffset":2808,"byteLength":288,"target":34962,"byteStride":12},{"buffer":0,"byteOffset":3096,"byteLength":192,"target":34962,"byteStride":8},{"buffer":0,"byteOffset":3288,"byteLength":72,"target":34963},{"buffer":0,"byteOffset":3360,"byteLength":288,"target":34962,"byteStride":12},{"buffer":0,"byteOffset":3648,"byteLength":288,"target":34962,"byteStride":12},{"buffer":0,"byteOffset":3936,"byteLength":192,"target":34962,"byteStride":8},{"buffer":0,"byteOffset":4128,"byteLength":72,"target":34963},{"buffer":0,"byteOffset":4200,"byteLength":288,"target":34962,"byteStride":12},{"buffer":0,"byteOffset":4488,"byteLength":288,"target":34962,"byteStride":12},{"buffer":0,"byteOffset":4776,"byteLength":192,"target":34962,"byteStride":8},{"buffer":0,"byteOffset":4968,"byteLength":72,"target":34963},{"buffer":0,"byteOffset":5040,"byteLength":288,"target":34962,"byteStride":12},{"buffer":0,"byteOffset":5328,"byteLength":288,"target":34962,"byteStride":12},{"buffer":0,"byteOffset":5616,"byteLength":192,"target":34962,"byteStride":8},{"buffer":0,"byteOffset":5808,"byteLength":72,"target":34963},{"buffer":0,"byteOffset":5880,"byteLength":288,"target":34962,"byteStride":12},{"buffer":0,"byteOffset":6168,"byteLength":288,"target":34962,"byteStride":12},{"buffer":0,"byteOffset":6456,"byteLength":192,"target":34962,"byteStride":8},{"buffer":0,"byteOffset":6648,"byteLength":72,"target":34963},{"buffer":0,"byteOffset":6720,"byteLength":288,"target":34962,"byteStride":12},{"buffer":0,"byteOffset":7008,"byteLength":288,"target":34962,"byteStride":12},{"buffer":0,"byteOffset":7296,"byteLength":192,"target":34962,"byteStride":8},{"buffer":0,"byteOffset":7488,"byteLength":72,"target":34963},{"buffer":0,"byteOffset":7560,"byteLength":288,"target":34962,"byteStride":12},{"buffer":0,"byteOffset":7848,"byteLength":288,"target":34962,"byteStride":12},{"buffer":0,"byteOffset":8136,"byteLength":192,"target":34962,"byteStride":8},{"buffer":0,"byteOffset":8328,"byteLength":72,"target":34963},{"buffer":0,"byteOffset":8400,"byteLength":288,"target":34962,"byteStride":12},{"buffer":0,"byteOffset":8688,"byteLength":288,"target":34962,"byteStride":12},{"buffer":0,"byteOffset":8976,"byteLength":192,"target":34962,"byteStride":8},{"buffer":0,"byteOffset":9168,"byteLength":72,"target":34963},{"buffer":0,"byteOffset":9240,"byteLength":288,"target":34962,"byteStride":12},{"buffer":0,"byteOffset":9528,"byteLength":288,"target":34962,"byteStride":12},{"buffer":0,"byteOffset":9816,"byteLength":192,"target":34962,"byteStride":8},{"buffer":0,"byteOffset":10008,"byteLength":72,"target":34963},{"buffer":0,"byteOffset":10080,"byteLength":204},{"buffer":0,"byteOffset":10284,"byteLength":816},{"buffer":0,"byteOffset":11100,"byteLength":204},{"buffer":0,"byteOffset":11304,"byteLength":612},{"buffer":0,"byteOffset":11916,"byteLength":204},{"buffer":0,"byteOffset":12120,"byteLength":816},{"buffer":0,"byteOffset":12936,"byteLength":204},{"buffer":0,"byteOffset":13140,"byteLength":612},{"buffer":0,"byteOffset":13752,"byteLength":204},{"buffer":0,"byteOffset":13956,"byteLength":816},{"buffer":0,"byteOffset":14772,"byteLength":204},{"buffer":0,"byteOffset":14976,"byteLength":612},{"buffer":0,"byteOffset":15588,"byteLength":204},{"buffer":0,"byteOffset":15792,"byteLength":612},{"buffer":0,"byteOffset":16404,"byteLength":204},{"buffer":0,"byteOffset":16608,"byteLength":816},{"buffer":0,"byteOffset":17424,"byteLength":204},{"buffer":0,"byteOffset":17628,"byteLength":612}],"buffers":[{"byteLength":18240,"uri":"data:application/octet-stream;base64,"}],"accessors":[{"bufferView":0,"componentType":5126,"count":24,"max":[0.25,1.5,0.125],"min":[-0.25,0.75,-0.125],"type":"VEC3"},{"bufferView":1,"componentType":5126,"count":24,"max":[1,1,1],"min":[-1,-1,-1],"type":"VEC3"},{"bufferView":2,"componentType":5126,"count":24,"max":[0.624755859375,0.749755859375],"min":[0.250244140625,0.500244140625],"type":"VEC2"},{"bufferView":3,"componentType":5123,"count":36,"max":[23],"min":[0],"type":"SCALAR"},{"bufferView":4,"componentType":5126,"count":24,"max":[0.26249998807907104,1.5125000476837158,0.13750000298023224],"min":[-0.26249998807907104,0.737500011920929,-0.13750000298023224],"type":"VEC3"},{"bufferView":5,"componentType":5126,"count":24,"max":[1,1,1],"min":[-1,-1,-1],"type":"VEC3"},{"bufferView":6,"componentType":5126,"count":24,"max":[0.624755859375,0.499755859375],"min":[0.250244140625,0.250244140625],"type":"VEC2"},{"bufferView":7,"componentType":5123,"count":36,"max":[23],"min":[0],"type":"SCALAR"},{"bufferView":8,"componentType":5126,"count":24,"max":[0.25,2,0.25],"min":[-0.25,1.5,-0.25],"type":"VEC3"},{"bufferView":9,"componentType":5126,"count":24,"max":[1,1,1],"min":[-1,-1,-1],"type":"VEC3"},{"bufferView":10,"componentType":5126,"count":24,"max":[0.499755859375,0.999755859375],"min":[0.000244140625,0.750244140625],"type":"VEC2"},{"bufferView":11,"componentType":5123,"count":36,"max":[23],"min":[0],"type":"SCALAR"},{"bufferView":12,"componentType":5126,"count":24,"max":[0.26249998807907104,2.012500047683716,0.26249998807907104],"min":[-0.26249998807907104,1.4874999523162842,-0.26249998807907104],"type":"VEC3"},{"bufferView":13,"componentType":5126,"count":24,"max":[1,1,1],"min":[-1,-1,-1],"type":"VEC3"},{"bufferView":14,"componentType":5126,"count":24,"max":[0.999755859375,0.999755859375],"min":[0.500244140625,0.750244140625],"type":"VEC2"},{"bufferView":15,"componentType":5123,"count":36,"max":[23],"min":[0],"type":"SCALAR"},{"bufferView":16,"componentType":5126,"count":24,"max":[0.4375,1.5,0.125],"min":[0.25,0.75,-0.125],"type":"VEC3"},{"bufferView":17,"componentType":5126,"count":24,"max":[1,1,1],"min":[-1,-1,-1],"type":"VEC3"},{"bufferView":18,"componentType":5126,"count":24,"max":[0.718505859375,0.249755859375],"min":[0.500244140625,0.000244140625],"type":"VEC2"},{"bufferView":19,"componentType":5123,"count":36,"max":[23],"min":[0],"type":"SCALAR"},{"bufferView":20,"componentType":5126,"count":24,"max":[0.44999998807907104,1.5125000476837158,0.13750000298023224],"min":[0.23749999701976776,0.737500011920929,-0.13750000298023224],"type":"VEC3"},{"bufferView":21,"componentType":5126,"count":24,"max":[1,1,1],"min":[-1,-1,-1],"type":"VEC3"},{"bufferView":22,"componentType":5126,"count":24,"max":[0.968505859375,0.249755859375],"min":[0.750244140625,0.000244140625],"type":"VEC2"},{"bufferView":23,"componentType":5123,"count":36,"max":[23],"min":[0],"type":"SCALAR"},{"bufferView":24,"componentType":5126,"count":24,"max":[-0.25,1.5,0.125],"min":[-0.4375,0.75,-0.125],"type":"VEC3"},{"bufferView":25,"componentType":5126,"count":24,"max":[1,1,1],"min":[-1,-1,-1],"type":"VEC3"},{"bufferView":26,"componentType":5126,"count":24,"max":[0.718505859375,0.249755859375],"min":[0.500244140625,0.000244140625],"type":"VEC2"},{"bufferView":27,"componentType":5123,"count":36,"max":[23],"min":[0],"type":"SCALAR"},{"bufferView":28,"componentType":5126,"count":24,"max":[-0.23749999701976776,1.5125000476837158,0.13750000298023224],"min":[-0.44999998807907104,0.737500011920929,-0.13750000298023224],"type":"VEC3"},{"bufferView":29,"componentType":5126,"count":24,"max":[1,1,1],"min":[-1,-1,-1],"type":"VEC3"},{"bufferView":30,"componentType":5126,"count":24,"max":[0.843505859375,0.499755859375],"min":[0.625244140625,0.250244140625],"type":"VEC2"},{"bufferView":31,"componentType":5123,"count":36,"max":[23],"min":[0],"type":"SCALAR"},{"bufferView":32,"componentType":5126,"count":24,"max":[0,0.75,0.125],"min":[-0.25,0,-0.125],"type":"VEC3"},{"bufferView":33,"componentType":5126,"count":24,"max":[1,1,1],"min":[-1,-1,-1],"type":"VEC3"},{"bufferView":34,"componentType":5126,"count":24,"max":[0.499755859375,0.249755859375],"min":[0.250244140625,0.000244140625],"type":"VEC2"},{"bufferView":35,"componentType":5123,"count":36,"max":[23],"min":[0],"type":"SCALAR"},{"bufferView":36,"componentType":5126,"count":24,"max":[0.012500000186264515,0.762499988079071,0.13750000298023224],"min":[-0.26249998807907104,-0.012500000186264515,-0.13750000298023224],"type":"VEC3"},{"bufferView":37,"componentType":5126,"count":24,"max":[1,1,1],"min":[-1,-1,-1],"type":"VEC3"},{"bufferView":38,"componentType":5126,"count":24,"max":[0.249755859375,0.249755859375],"min":[0.000244140625,0.000244140625],"type":"VEC2"},{"bufferView":39,"componentType":5123,"count":36,"max":[23],"min":[0],"type":"SCALAR"},{"bufferView":40,"componentType":5126,"count":24,"max":[0.25,0.75,0.125],"min":[0,0,-0.125],"type":"VEC3"},{"bufferView":41,"componentType":5126,"count":24,"max":[1,1,1],"min":[-1,-1,-1],"type":"VEC3"},{"bufferView":42,"componentType":5126,"count":24,"max":[0.249755859375,0.749755859375],"min":[0.000244140625,0.500244140625],"type":"VEC2"},{"bufferView":43,"componentType":5123,"count":36,"max":[23],"min":[0],"type":"SCALAR"},{"bufferView":44,"componentType":5126,"count":24,"max":[0.26249998807907104,0.762499988079071,0.13750000298023224],"min":[-0.012500000186264515,-0.012500000186264515,-0.13750000298023224],"type":"VEC3"},{"bufferView":45,"componentType":5126,"count":24,"max":[1,1,1],"min":[-1,-1,-1],"type":"VEC3"},{"bufferView":46,"componentType":5126,"count":24,"max":[0.249755859375,0.499755859375],"min":[0.000244140625,0.250244140625],"type":"VEC2"},{"bufferView":47,"componentType":5123,"count":36,"max":[23],"min":[0],"type":"SCALAR"},{"bufferView":48,"componentType":5126,"count":51,"max":[3],"min":[0],"type":"SCALAR"},{"bufferView":49,"componentType":5126,"count":51,"max":[-0.02178874798119068,-0.021809693425893784,0.0009549936512485147,0.9995241165161133],"min":[-0.04358808323740959,-0.04360917583107948,0.0004758892173413187,0.9980968832969666],"type":"VEC4"},{"bufferView":50,"componentType":5126,"count":51,"max":[3],"min":[0],"type":"SCALAR"},{"bufferView":51,"componentType":5126,"count":51,"max":[0.125,0.375,-0.015625],"min":[0.125,0.375,-0.03125],"type":"VEC3"},{"bufferView":52,"componentType":5126,"count":51,"max":[3],"min":[0],"type":"SCALAR"},{"bufferView":53,"componentType":5126,"count":51,"max":[0.0009515519486740232,0.021794121712446213,-0.02181488461792469,0.9997619986534119],"min":[0,0,-0.04360900819301605,0.9988104701042175],"type":"VEC4"},{"bufferView":54,"componentType":5126,"count":51,"max":[3],"min":[0],"type":"SCALAR"},{"bufferView":55,"componentType":5126,"count":51,"max":[-0.375,-0.015625,0],"min":[-0.375,-0.046875,0],"type":"VEC3"},{"bufferView":56,"componentType":5126,"count":51,"max":[3],"min":[0],"type":"SCALAR"},{"bufferView":57,"componentType":5126,"count":51,"max":[0.0009515519486740232,0,0.04360900819301605,0.9997619986534119],"min":[0,-0.021794121712446213,0.02181488461792469,0.9988104701042175],"type":"VEC4"},{"bufferView":58,"componentType":5126,"count":51,"max":[3],"min":[0],"type":"SCALAR"},{"bufferView":59,"componentType":5126,"count":51,"max":[0.390625,-0.015625,0],"min":[0.375,-0.046875,0],"type":"VEC3"},{"bufferView":60,"componentType":5126,"count":51,"max":[3],"min":[0],"type":"SCALAR"},{"bufferView":61,"componentType":5126,"count":51,"max":[0,1.125,0],"min":[0,1.109375,-0.015625],"type":"VEC3"},{"bufferView":62,"componentType":5126,"count":51,"max":[3],"min":[0],"type":"SCALAR"},{"bufferView":63,"componentType":5126,"count":51,"max":[-0.021809693425893784,0.06534087657928467,0.0004758892173413187,0.9995241165161133],"min":[-0.04360900819301605,0.021809693425893784,-0.0009515519486740232,0.9969092011451721],"type":"VEC4"},{"bufferView":64,"componentType":5126,"count":51,"max":[3],"min":[0],"type":"SCALAR"},{"bufferView":65,"componentType":5126,"count":51,"max":[-0.125,0.375,-0.03125],"min":[-0.125,0.375,-0.046875],"type":"VEC3"}],"materials":[{"pbrMetallicRoughness":{"metallicFactor":0,"roughnessFactor":1,"baseColorTexture":{"index":0}},"alphaMode":"MASK","alphaCutoff":0.05,"doubleSided":true}],"textures":[{"sampler":0,"source":0,"name":"steve.png"}],"samplers":[{"magFilter":9728,"minFilter":9728,"wrapS":33071,"wrapT":33071}],"images":[{"mimeType":"image/png","uri":"data:image/png;base64,"}],"meshes":[{"primitives":[{"mode":4,"attributes":{"POSITION":0,"NORMAL":1,"TEXCOORD_0":2},"indices":3,"material":0}]},{"primitives":[{"mode":4,"attributes":{"POSITION":4,"NORMAL":5,"TEXCOORD_0":6},"indices":7,"material":0}]},{"primitives":[{"mode":4,"attributes":{"POSITION":8,"NORMAL":9,"TEXCOORD_0":10},"indices":11,"material":0}]},{"primitives":[{"mode":4,"attributes":{"POSITION":12,"NORMAL":13,"TEXCOORD_0":14},"indices":15,"material":0}]},{"primitives":[{"mode":4,"attributes":{"POSITION":16,"NORMAL":17,"TEXCOORD_0":18},"indices":19,"material":0}]},{"primitives":[{"mode":4,"attributes":{"POSITION":20,"NORMAL":21,"TEXCOORD_0":22},"indices":23,"material":0}]},{"primitives":[{"mode":4,"attributes":{"POSITION":24,"NORMAL":25,"TEXCOORD_0":26},"indices":27,"material":0}]},{"primitives":[{"mode":4,"attributes":{"POSITION":28,"NORMAL":29,"TEXCOORD_0":30},"indices":31,"material":0}]},{"primitives":[{"mode":4,"attributes":{"POSITION":32,"NORMAL":33,"TEXCOORD_0":34},"indices":35,"material":0}]},{"primitives":[{"mode":4,"attributes":{"POSITION":36,"NORMAL":37,"TEXCOORD_0":38},"indices":39,"material":0}]},{"primitives":[{"mode":4,"attributes":{"POSITION":40,"NORMAL":41,"TEXCOORD_0":42},"indices":43,"material":0}]},{"primitives":[{"mode":4,"attributes":{"POSITION":44,"NORMAL":45,"TEXCOORD_0":46},"indices":47,"material":0}]}],"animations":[{"name":"animation.model.idle","samplers":[{"input":48,"output":49,"interpolation":"LINEAR"},{"input":50,"output":51,"interpolation":"LINEAR"},{"input":52,"output":53,"interpolation":"LINEAR"},{"input":54,"output":55,"interpolation":"LINEAR"},{"input":56,"output":57,"interpolation":"LINEAR"},{"input":58,"output":59,"interpolation":"LINEAR"},{"input":60,"output":61,"interpolation":"LINEAR"},{"input":62,"output":63,"interpolation":"LINEAR"},{"input":64,"output":65,"interpolation":"LINEAR"}],"channels":[{"sampler":0,"target":{"node":17,"path":"rotation"}},{"sampler":1,"target":{"node":17,"path":"translation"}},{"sampler":2,"target":{"node":10,"path":"rotation"}},{"sampler":3,"target":{"node":10,"path":"translation"}},{"sampler":4,"target":{"node":7,"path":"rotation"}},{"sampler":5,"target":{"node":7,"path":"translation"}},{"sampler":6,"target":{"node":11,"path":"translation"}},{"sampler":7,"target":{"node":14,"path":"rotation"}},{"sampler":8,"target":{"node":14,"path":"translation"}}]}]}