{
  "accessors": [
    {
      "bufferView": 2,
      "componentType": 5126,
      "count": 728,
      "max": [
        513.0045166015625,
        657.0148315429688,
        755.6292724609375
      ],
      "min": [
        -392.0561828613281,
        189.48260498046875,
        375.0934143066406
      ],
      "type": "VEC3"
    },
    {
      "bufferView": 2,
      "byteOffset": 8736,
      "componentType": 5126,
      "count": 728,
      "max": [
        0.9999936819076538,
        1.0,
        0.9968287348747253
      ],
      "min": [
        -0.9978455901145935,
        -1.0,
        -0.9979563355445862
      ],
      "type": "VEC3"
    },
    {
      "bufferView": 3,
      "componentType": 5126,
      "count": 728,
      "max": [
        0.9944910407066345,
        0.997401773929596,
        0.9990241527557373,
        1.0
      ],
      "min": [
        -0.9990366697311401,
        -0.9983761310577393,
        -0.9980767369270325,
        -1.0
      ],
      "type": "VEC4"
    },
    {
      "bufferView": 1,
      "componentType": 5126,
      "count": 728,
      "max": [
        0.9893609881401062,
        0.9765740036964417
      ],
      "min": [
        0.029482999816536903,
        0.009952999651432037
      ],
      "type": "VEC2"
    },
    {
      "bufferView": 0,
      "componentType": 5125,
      "count": 3228,
      "type": "SCALAR"
    },
    {
      "bufferView": 2,
      "byteOffset": 17472,
      "componentType": 5126,
      "count": 275,
      "max": [
        625.9082641601563,
        609.1124267578125,
        152.31085205078125
      ],
      "min": [
        -486.8008117675781,
        364.2442626953125,
        -531.8279418945313
      ],
      "type": "VEC3"
    },
    {
      "bufferView": 2,
      "byteOffset": 20772,
      "componentType": 5126,
      "count": 275,
      "max": [
        0.999636173248291,
        1.0,
        0.9999710321426392
      ],
      "min": [
        -0.9999749660491943,
        -1.0,
        -0.9999710321426392
      ],
      "type": "VEC3"
    },
    {
      "bufferView": 3,
      "byteOffset": 11648,
      "componentType": 5126,
      "count": 275,
      "max": [
        0.9999710321426392,
        0.8660112023353577,
        0.9996362328529358,
        1.0
      ],
      "min": [
        -1.0,
        -0.8660696148872375,
        -0.9999695420265198,
        -1.0
      ],
      "type": "VEC4"
    },
    {
      "bufferView": 1,
      "byteOffset": 5824,
      "componentType": 5126,
      "count": 275,
      "max": [
        0.9872362613677979,
        0.991621732711792
      ],
      "min": [
        0.010605096817016602,
        0.011688470840454102
      ],
      "type": "VEC2"
    },
    {
      "bufferView": 0,
      "byteOffset": 12912,
      "componentType": 5125,
      "count": 660,
      "type": "SCALAR"
    },
    {
      "bufferView": 2,
      "byteOffset": 24072,
      "componentType": 5126,
      "count": 48,
      "max": [
        545.0877075195313,
        348.89697265625,
        315.4895324707031
      ],
      "min": [
        -390.64642333984375,
        173.6131591796875,
        -524.5438842773438
      ],
      "type": "VEC3"
    },
    {
      "bufferView": 2,
      "byteOffset": 24648,
      "componentType": 5126,
      "count": 48,
      "max": [
        0.9804472923278809,
        0.14642128348350525,
        0.981689989566803
      ],
      "min": [
        -0.9706519246101379,
        -0.022862369194626808,
        -0.9816898703575134
      ],
      "type": "VEC3"
    },
    {
      "bufferView": 3,
      "byteOffset": 16048,
      "componentType": 5126,
      "count": 48,
      "max": [
        0.9808905720710754,
        0.15115801990032196,
        0.9816601872444153,
        1.0
      ],
      "min": [
        -0.9798754453659058,
        -0.1416374146938324,
        -0.9372460246086121,
        1.0
      ],
      "type": "VEC4"
    },
    {
      "bufferView": 1,
      "byteOffset": 8024,
      "componentType": 5126,
      "count": 48,
      "max": [
        0.9767047166824341,
        0.977734386920929
      ],
      "min": [
        0.03740435838699341,
        0.02105647325515747
      ],
      "type": "VEC2"
    },
    {
      "bufferView": 0,
      "byteOffset": 15552,
      "componentType": 5125,
      "count": 72,
      "type": "SCALAR"
    },
    {
      "bufferView": 2,
      "byteOffset": 25224,
      "componentType": 5126,
      "count": 570,
      "max": [
        535.44189453125,
        464.39105224609375,
        351.5152587890625
      ],
      "min": [
        -387.47064208984375,
        333.0074462890625,
        -526.797119140625
      ],
      "type": "VEC3"
    },
    {
      "bufferView": 2,
      "byteOffset": 32064,
      "componentType": 5126,
      "count": 570,
      "max": [
        0.9989256262779236,
        0.9997415542602539,
        0.9994770288467407
      ],
      "min": [
        -0.9996034502983093,
        -0.9996225833892822,
        -0.9960337281227112
      ],
      "type": "VEC3"
    },
    {
      "bufferView": 3,
      "byteOffset": 16816,
      "componentType": 5126,
      "count": 570,
      "max": [
        0.9982692003250122,
        0.9984598159790039,
        0.9999791383743286,
        1.0
      ],
      "min": [
        -0.9956850409507751,
        -0.9884916543960571,
        -0.9996932148933411,
        1.0
      ],
      "type": "VEC4"
    },
    {
      "bufferView": 1,
      "byteOffset": 8408,
      "componentType": 5126,
      "count": 570,
      "max": [
        0.9733372926712036,
        0.9885443449020386
      ],
      "min": [
        0.03340277075767517,
        0.02281351387500763
      ],
      "type": "VEC2"
    },
    {
      "bufferView": 0,
      "byteOffset": 15840,
      "componentType": 5125,
      "count": 2100,
      "type": "SCALAR"
    },
    {
      "bufferView": 2,
      "byteOffset": 38904,
      "componentType": 5126,
      "count": 48,
      "max": [
        616.3929443359375,
        379.7747497558594,
        121.93325805664063
      ],
      "min": [
        -464.9429931640625,
        233.4129638671875,
        -414.6139221191406
      ],
      "type": "VEC3"
    },
    {
      "bufferView": 2,
      "byteOffset": 39480,
      "componentType": 5126,
      "count": 48,
      "max": [
        0.9990546703338623,
        0.9995068907737732,
        0.6077437400817871
      ],
      "min": [
        -0.9991599917411804,
        -3.299117088317871e-05,
        -0.043481532484292984
      ],
      "type": "VEC3"
    },
    {
      "bufferView": 3,
      "byteOffset": 25936,
      "componentType": 5126,
      "count": 48,
      "max": [
        0.6381796002388,
        0.047943975776433945,
        0.9999366998672485,
        1.0
      ],
      "min": [
        -0.07384802401065826,
        0.0010124796535819769,
        -0.9989957213401794,
        1.0
      ],
      "type": "VEC4"
    },
    {
      "bufferView": 1,
      "byteOffset": 12968,
      "componentType": 5126,
      "count": 48,
      "max": [
        0.9471580982208252,
        0.9789431095123291
      ],
      "min": [
        0.042125046253204346,
        0.020321380347013474
      ],
      "type": "VEC2"
    },
    {
      "bufferView": 0,
      "byteOffset": 24240,
      "componentType": 5125,
      "count": 144,
      "type": "SCALAR"
    },
    {
      "bufferView": 2,
      "byteOffset": 40056,
      "componentType": 5126,
      "count": 96,
      "max": [
        158.21421813964844,
        506.44464111328125,
        885.3963012695313
      ],
      "min": [
        -37.84967803955078,
        198.27694702148438,
        547.9755249023438
      ],
      "type": "VEC3"
    },
    {
      "bufferView": 2,
      "byteOffset": 41208,
      "componentType": 5126,
      "count": 96,
      "max": [
        1.0,
        1.0,
        1.1035689567506779e-05
      ],
      "min": [
        -1.0,
        -0.9741087555885315,
        -1.0
      ],
      "type": "VEC3"
    },
    {
      "bufferView": 3,
      "byteOffset": 26704,
      "componentType": 5126,
      "count": 96,
      "max": [
        0.990889847278595,
        0.9999998807907104,
        0.6942906379699707,
        1.0
      ],
      "min": [
        -0.9950369000434875,
        -0.9999255537986755,
        -0.6618945598602295,
        -1.0
      ],
      "type": "VEC4"
    },
    {
      "bufferView": 1,
      "byteOffset": 13352,
      "componentType": 5126,
      "count": 96,
      "max": [
        0.985529363155365,
        0.9780895113945007
      ],
      "min": [
        0.012937366962432861,
        0.014729470014572144
      ],
      "type": "VEC2"
    },
    {
      "bufferView": 0,
      "byteOffset": 24816,
      "componentType": 5125,
      "count": 180,
      "type": "SCALAR"
    },
    {
      "bufferView": 2,
      "byteOffset": 42360,
      "componentType": 5126,
      "count": 794,
      "max": [
        714.92431640625,
        512.72509765625,
        960.0155639648438
      ],
      "min": [
        -567.5970458984375,
        185.339599609375,
        -764.7008666992188
      ],
      "type": "VEC3"
    },
    {
      "bufferView": 2,
      "byteOffset": 51888,
      "componentType": 5126,
      "count": 794,
      "max": [
        0.9807218909263611,
        1.0,
        0.9416028261184692
      ],
      "min": [
        -0.9807220101356506,
        -1.0,
        -0.9416035413742065
      ],
      "type": "VEC3"
    },
    {
      "bufferView": 3,
      "byteOffset": 28240,
      "componentType": 5126,
      "count": 794,
      "max": [
        0.9758294820785522,
        0.17333170771598816,
        0.9914368987083435,
        1.0
      ],
      "min": [
        -0.974506676197052,
        -0.17403045296669006,
        -0.9917377829551697,
        -1.0
      ],
      "type": "VEC4"
    },
    {
      "bufferView": 1,
      "byteOffset": 14120,
      "componentType": 5126,
      "count": 794,
      "max": [
        0.9932665228843689,
        0.9986516833305359
      ],
      "min": [
        0.0072325170040130615,
        0.0077918171882629395
      ],
      "type": "VEC2"
    },
    {
      "bufferView": 0,
      "byteOffset": 25536,
      "componentType": 5125,
      "count": 1296,
      "type": "SCALAR"
    }
  ],
  "asset": {
    "extras": {
      "author": "Leonardo Carvalho (https://sketchfab.com/livrosparacriancas)",
      "license": "SKETCHFAB Standard (https://sketchfab.com/licenses)",
      "source": "https://sketchfab.com/3d-models/gladiators-low-poly-arena-small-version-66f006f00aee4fd58ef9e6b45a5d5958",
      "title": "Gladiators Low Poly Arena (small version)"
    },
    "generator": "Sketchfab-15.62.0",
    "version": "2.0"
  },
  "bufferViews": [
    {
      "buffer": 0,
      "byteLength": 30720,
      "name": "floatBufferViews",
      "target": 34963
    },
    {
      "buffer": 0,
      "byteLength": 20472,
      "byteOffset": 30720,
      "byteStride": 8,
      "name": "floatBufferViews",
      "target": 34962
    },
    {
      "buffer": 0,
      "byteLength": 61416,
      "byteOffset": 51192,
      "byteStride": 12,
      "name": "floatBufferViews",
      "target": 34962
    },
    {
      "buffer": 0,
      "byteLength": 40944,
      "byteOffset": 112608,
      "byteStride": 16,
      "name": "floatBufferViews",
      "target": 34962
    }
  ],
  "buffers": [
    {
      "byteLength": 153552,
      "uri": "scene.bin"
    }
  ],
  "extensionsUsed": [
    "KHR_materials_specular"
  ],
  "images": [
    {
      "uri": "textures/MechanismMaterial_baseColor.png"
    },
    {
      "uri": "textures/MechanismMaterial_metallicRoughness.png"
    },
    {
      "uri": "textures/MechanismMaterial_normal.png"
    },
    {
      "uri": "textures/FlagPoleMaterial_baseColor.png"
    },
    {
      "uri": "textures/FlagPoleMaterial_metallicRoughness.png"
    },
    {
      "uri": "textures/FlagPoleMaterial_normal.png"
    },
    {
      "uri": "textures/PillarsMaterial_baseColor.png"
    },
    {
      "uri": "textures/PillarsMaterial_metallicRoughness.png"
    },
    {
      "uri": "textures/PillarsMaterial_normal.png"
    },
    {
      "uri": "textures/WoodSpike_baseColor.png"
    },
    {
      "uri": "textures/WoodSpike_metallicRoughness.png"
    },
    {
      "uri": "textures/WoodSpike_normal.png"
    },
    {
      "uri": "textures/Flag_baseColor.png"
    },
    {
      "uri": "textures/Flag_normal.png"
    },
    {
      "uri": "textures/ArenaGate_baseColor.png"
    },
    {
      "uri": "textures/ArenaGate_metallicRoughness.png"
    },
    {
      "uri": "textures/ArenaGate_normal.png"
    },
    {
      "uri": "textures/ArenaMaterial_baseColor.png"
    },
    {
      "uri": "textures/ArenaMaterial_metallicRoughness.png"
    },
    {
      "uri": "textures/ArenaMaterial_normal.png"
    }
  ],
  "materials": [
    {
      "doubleSided": true,
      "extensions": {
        "KHR_materials_specular": {
          "specularColorFactor": [
            1.0,
            1.0,
            1.0
          ],
          "specularFactor": 0.0
        }
      },
      "name": "MechanismMaterial",
      "normalTexture": {
        "index": 2,
        "scale": 0.6603467987804879
      },
      "occlusionTexture": {
        "index": 1
      },
      "pbrMetallicRoughness": {
        "baseColorTexture": {
          "index": 0
        },
        "metallicFactor": 0.0,
        "metallicRoughnessTexture": {
          "index": 1
        },
        "roughnessFactor": 0.7763932022500211
      }
    },
    {
      "doubleSided": true,
      "extensions": {
        "KHR_materials_specular": {
          "specularColorFactor": [
            1.0,
            1.0,
            1.0
          ],
          "specularFactor": 0.0
        }
      },
      "name": "FlagPoleMaterial",
      "normalTexture": {
        "index": 5
      },
      "occlusionTexture": {
        "index": 4
      },
      "pbrMetallicRoughness": {
        "baseColorTexture": {
          "index": 3
        },
        "metallicFactor": 0.0,
        "metallicRoughnessTexture": {
          "index": 4
        },
        "roughnessFactor": 0.7763932022500211
      }
    },
    {
      "doubleSided": true,
      "extensions": {
        "KHR_materials_specular": {
          "specularColorFactor": [
            1.0,
            1.0,
            1.0
          ],
          "specularFactor": 0.0
        }
      },
      "name": "PillarsMaterial",
      "normalTexture": {
        "index": 8
      },
      "occlusionTexture": {
        "index": 7
      },
      "pbrMetallicRoughness": {
        "baseColorTexture": {
          "index": 6
        },
        "metallicFactor": 0.0,
        "metallicRoughnessTexture": {
          "index": 7
        }
      }
    },
    {
      "doubleSided": true,
      "extensions": {
        "KHR_materials_specular": {
          "specularColorFactor": [
            1.0,
            1.0,
            1.0
          ],
          "specularFactor": 0.0
        }
      },
      "name": "WoodSpike",
      "normalTexture": {
        "index": 11
      },
      "occlusionTexture": {
        "index": 10
      },
      "pbrMetallicRoughness": {
        "baseColorTexture": {
          "index": 9
        },
        "metallicFactor": 0.0,
        "metallicRoughnessTexture": {
          "index": 10
        },
        "roughnessFactor": 0.7763932022500211
      }
    },
    {
      "doubleSided": true,
      "extensions": {
        "KHR_materials_specular": {
          "specularColorFactor": [
            1.0,
            1.0,
            1.0
          ],
          "specularFactor": 0.0
        }
      },
      "name": "Flag",
      "normalTexture": {
        "index": 13
      },
      "occlusionTexture": {
        "index": 4
      },
      "pbrMetallicRoughness": {
        "baseColorTexture": {
          "index": 12
        },
        "metallicFactor": 0.0,
        "metallicRoughnessTexture": {
          "index": 4
        },
        "roughnessFactor": 0.7763932022500211
      }
    },
    {
      "doubleSided": true,
      "extensions": {
        "KHR_materials_specular": {
          "specularColorFactor": [
            1.0,
            1.0,
            1.0
          ],
          "specularFactor": 0.0
        }
      },
      "name": "ArenaGate",
      "normalTexture": {
        "index": 16
      },
      "occlusionTexture": {
        "index": 15
      },
      "pbrMetallicRoughness": {
        "baseColorTexture": {
          "index": 14
        },
        "metallicFactor": 0.0,
        "metallicRoughnessTexture": {
          "index": 15
        },
        "roughnessFactor": 0.7763932022500211
      }
    },
    {
      "doubleSided": true,
      "extensions": {
        "KHR_materials_specular": {
          "specularColorFactor": [
            1.0,
            1.0,
            1.0
          ],
          "specularFactor": 0.0
        }
      },
      "name": "ArenaMaterial",
      "normalTexture": {
        "index": 19
      },
      "occlusionTexture": {
        "index": 18
      },
      "pbrMetallicRoughness": {
        "baseColorTexture": {
          "index": 17
        },
        "metallicFactor": 0.0,
        "metallicRoughnessTexture": {
          "index": 18
        },
        "roughnessFactor": 0.7763932022500211
      }
    }
  ],
  "meshes": [
    {
      "name": "Mechanism_MechanismMaterial_0",
      "primitives": [
        {
          "attributes": {
            "NORMAL": 1,
            "POSITION": 0,
            "TANGENT": 2,
            "TEXCOORD_0": 3
          },
          "indices": 4,
          "material": 0,
          "mode": 4
        }
      ]
    },
    {
      "name": "FlagPole_FlagPoleMaterial_0",
      "primitives": [
        {
          "attributes": {
            "NORMAL": 6,
            "POSITION": 5,
            "TANGENT": 7,
            "TEXCOORD_0": 8
          },
          "indices": 9,
          "material": 1,
          "mode": 4
        }
      ]
    },
    {
      "name": "Pillars_PillarsMaterial_0",
      "primitives": [
        {
          "attributes": {
            "NORMAL": 11,
            "POSITION": 10,
            "TANGENT": 12,
            "TEXCOORD_0": 13
          },
          "indices": 14,
          "material": 2,
          "mode": 4
        }
      ]
    },
    {
      "name": "WoodSpikes_WoodSpike_0",
      "primitives": [
        {
          "attributes": {
            "NORMAL": 16,
            "POSITION": 15,
            "TANGENT": 17,
            "TEXCOORD_0": 18
          },
          "indices": 19,
          "material": 3,
          "mode": 4
        }
      ]
    },
    {
      "name": "Flags_Flag_0",
      "primitives": [
        {
          "attributes": {
            "NORMAL": 21,
            "POSITION": 20,
            "TANGENT": 22,
            "TEXCOORD_0": 23
          },
          "indices": 24,
          "material": 4,
          "mode": 4
        }
      ]
    },
    {
      "name": "Portal_ArenaGate_0",
      "primitives": [
        {
          "attributes": {
            "NORMAL": 26,
            "POSITION": 25,
            "TANGENT": 27,
            "TEXCOORD_0": 28
          },
          "indices": 29,
          "material": 5,
          "mode": 4
        }
      ]
    },
    {
      "name": "Arena_ArenaMaterial_0",
      "primitives": [
        {
          "attributes": {
            "NORMAL": 31,
            "POSITION": 30,
            "TANGENT": 32,
            "TEXCOORD_0": 33
          },
          "indices": 34,
          "material": 6,
          "mode": 4
        }
      ]
    }
  ],
  "nodes": [
    {
      "children": [
        1
      ],
      "matrix": [
        1.0,
        0.0,
        0.0,
        0.0,
        0.0,
        2.220446049250313e-16,
        -1.0,
        0.0,
        0.0,
        1.0,
        2.220446049250313e-16,
        0.0,
        0.0,
        0.0,
        0.0,
        1.0
      ],
      "name": "Sketchfab_model"
    },
    {
      "children": [
        2
      ],
      "matrix": [
        1.0,
        0.0,
        0.0,
        0.0,
        0.0,
        0.0,
        1.0,
        0.0,
        0.0,
        -1.0,
        0.0,
        0.0,
        0.0,
        0.0,
        0.0,
        1.0
      ],
      "name": "HGs-Arena-2.5k-tris.fbx"
    },
    {
      "children": [
        3,
        5,
        7,
        9,
        11,
        13,
        15
      ],
      "name": "RootNode"
    },
    {
      "children": [
        4
      ],
      "name": "Mechanism"
    },
    {
      "mesh": 0,
      "name": "Mechanism_MechanismMaterial_0"
    },
    {
      "children": [
        6
      ],
      "name": "FlagPole"
    },
    {
      "mesh": 1,
      "name": "FlagPole_FlagPoleMaterial_0"
    },
    {
      "children": [
        8
      ],
      "name": "Pillars"
    },
    {
      "mesh": 2,
      "name": "Pillars_PillarsMaterial_0"
    },
    {
      "children": [
        10
      ],
      "name": "WoodSpikes"
    },
    {
      "mesh": 3,
      "name": "WoodSpikes_WoodSpike_0"
    },
    {
      "children": [
        12
      ],
      "name": "Flags"
    },
    {
      "mesh": 4,
      "name": "Flags_Flag_0"
    },
    {
      "children": [
        14
      ],
      "name": "Portal"
    },
    {
      "mesh": 5,
      "name": "Portal_ArenaGate_0"
    },
    {
      "children": [
        16
      ],
      "name": "Arena"
    },
    {
      "mesh": 6,
      "name": "Arena_ArenaMaterial_0"
    }
  ],
  "samplers": [
    {
      "magFilter": 9729,
      "minFilter": 9987,
      "wrapS": 10497,
      "wrapT": 10497
    }
  ],
  "scene": 0,
  "scenes": [
    {
      "name": "Sketchfab_Scene",
      "nodes": [
        0
      ]
    }
  ],
  "textures": [
    {
      "sampler": 0,
      "source": 0
    },
    {
      "sampler": 0,
      "source": 1
    },
    {
      "sampler": 0,
      "source": 2
    },
    {
      "sampler": 0,
      "source": 3
    },
    {
      "sampler": 0,
      "source": 4
    },
    {
      "sampler": 0,
      "source": 5
    },
    {
      "sampler": 0,
      "source": 6
    },
    {
      "sampler": 0,
      "source": 7
    },
    {
      "sampler": 0,
      "source": 8
    },
    {
      "sampler": 0,
      "source": 9
    },
    {
      "sampler": 0,
      "source": 10
    },
    {
      "sampler": 0,
      "source": 11
    },
    {
      "sampler": 0,
      "source": 12
    },
    {
      "sampler": 0,
      "source": 13
    },
    {
      "sampler": 0,
      "source": 14
    },
    {
      "sampler": 0,
      "source": 15
    },
    {
      "sampler": 0,
      "source": 16
    },
    {
      "sampler": 0,
      "source": 17
    },
    {
      "sampler": 0,
      "source": 18
    },
    {
      "sampler": 0,
      "source": 19
    }
  ]
}
